<mxfile host="app.diagrams.net" modified="2023-03-08T09:38:31.747Z" agent="5.0 (Macintosh; Intel Mac OS X 10_15_7) AppleWebKit/537.36 (KHTML, like Gecko) Chrome/110.0.0.0 Safari/537.36" etag="5Vjz2jvv9_JDcA_Wah4T" version="21.0.2" type="github" pages="3">
  <diagram id="qsw-7wgHA4WMMDQBHD0g" name="概要">
    <mxGraphModel dx="1182" dy="575" grid="1" gridSize="10" guides="1" tooltips="1" connect="1" arrows="1" fold="1" page="1" pageScale="1" pageWidth="827" pageHeight="1169" math="0" shadow="1">
      <root>
        <mxCell id="0" />
        <mxCell id="1" parent="0" />
        <mxCell id="1-aPaQAdepPUYkm6uSl_-10" value="&lt;font face=&quot;Comic Sans MS&quot;&gt;App Prober&lt;/font&gt;" style="rounded=1;whiteSpace=wrap;html=1;shadow=1;sketch=1;strokeColor=default;fillColor=default;gradientColor=none;glass=0;verticalAlign=top;labelBackgroundColor=none;" parent="1" vertex="1">
          <mxGeometry x="320" y="670" width="290" height="250" as="geometry" />
        </mxCell>
        <mxCell id="1-aPaQAdepPUYkm6uSl_-11" style="edgeStyle=orthogonalEdgeStyle;rounded=0;sketch=1;orthogonalLoop=1;jettySize=auto;html=1;entryX=0.25;entryY=0;entryDx=0;entryDy=0;shadow=1;fontFamily=Comic Sans MS;labelBackgroundColor=none;" parent="1" source="1-aPaQAdepPUYkm6uSl_-6" target="1-aPaQAdepPUYkm6uSl_-8" edge="1">
          <mxGeometry relative="1" as="geometry" />
        </mxCell>
        <mxCell id="1-aPaQAdepPUYkm6uSl_-6" value="&lt;font face=&quot;Comic Sans MS&quot;&gt;L1s&lt;/font&gt;" style="rounded=1;whiteSpace=wrap;html=1;shadow=1;sketch=1;strokeColor=default;fillColor=default;gradientColor=none;glass=0;labelBackgroundColor=none;" parent="1" vertex="1">
          <mxGeometry x="100" y="595" width="90" height="40" as="geometry" />
        </mxCell>
        <mxCell id="1-aPaQAdepPUYkm6uSl_-12" style="edgeStyle=orthogonalEdgeStyle;rounded=0;sketch=1;orthogonalLoop=1;jettySize=auto;html=1;entryX=0.75;entryY=0;entryDx=0;entryDy=0;shadow=1;fontFamily=Comic Sans MS;labelBackgroundColor=none;" parent="1" source="1-aPaQAdepPUYkm6uSl_-7" target="1-aPaQAdepPUYkm6uSl_-8" edge="1">
          <mxGeometry relative="1" as="geometry" />
        </mxCell>
        <mxCell id="1-aPaQAdepPUYkm6uSl_-7" value="&lt;font face=&quot;Comic Sans MS&quot;&gt;eBPF&lt;/font&gt;" style="rounded=1;whiteSpace=wrap;html=1;shadow=0;sketch=1;strokeColor=default;fillColor=default;gradientColor=none;glass=0;labelBackgroundColor=none;" parent="1" vertex="1">
          <mxGeometry x="220" y="595" width="90" height="40" as="geometry" />
        </mxCell>
        <mxCell id="1-aPaQAdepPUYkm6uSl_-8" value="&lt;font face=&quot;Comic Sans MS&quot;&gt;DDMQ&lt;/font&gt;" style="rounded=1;whiteSpace=wrap;html=1;shadow=1;sketch=1;strokeColor=default;fillColor=default;gradientColor=none;glass=0;labelBackgroundColor=none;" parent="1" vertex="1">
          <mxGeometry x="160" y="695" width="90" height="40" as="geometry" />
        </mxCell>
        <mxCell id="1-aPaQAdepPUYkm6uSl_-9" value="&lt;font face=&quot;Comic Sans MS&quot;&gt;服务树&lt;/font&gt;" style="rounded=1;whiteSpace=wrap;html=1;shadow=1;sketch=1;strokeColor=default;fillColor=default;gradientColor=none;glass=0;labelBackgroundColor=none;" parent="1" vertex="1">
          <mxGeometry x="160" y="770" width="90" height="40" as="geometry" />
        </mxCell>
        <mxCell id="1-aPaQAdepPUYkm6uSl_-14" value="&lt;font face=&quot;Comic Sans MS&quot;&gt;base&lt;/font&gt;" style="rounded=1;whiteSpace=wrap;html=1;shadow=1;sketch=1;strokeColor=default;fillColor=default;gradientColor=none;glass=0;horizontal=1;verticalAlign=top;labelBackgroundColor=none;" parent="1" vertex="1">
          <mxGeometry x="330" y="710" width="120" height="90" as="geometry" />
        </mxCell>
        <mxCell id="1-aPaQAdepPUYkm6uSl_-18" style="edgeStyle=orthogonalEdgeStyle;rounded=0;sketch=1;orthogonalLoop=1;jettySize=auto;html=1;entryX=1;entryY=0.5;entryDx=0;entryDy=0;shadow=1;fontFamily=Comic Sans MS;labelBackgroundColor=none;" parent="1" source="1-aPaQAdepPUYkm6uSl_-15" target="1-aPaQAdepPUYkm6uSl_-8" edge="1">
          <mxGeometry relative="1" as="geometry" />
        </mxCell>
        <mxCell id="1-aPaQAdepPUYkm6uSl_-36" value="1" style="edgeLabel;html=1;align=center;verticalAlign=middle;resizable=0;points=[];fontFamily=Comic Sans MS;labelBackgroundColor=none;" parent="1-aPaQAdepPUYkm6uSl_-18" vertex="1" connectable="0">
          <mxGeometry x="0.5133" y="-1" relative="1" as="geometry">
            <mxPoint x="-2" y="-11" as="offset" />
          </mxGeometry>
        </mxCell>
        <mxCell id="1-aPaQAdepPUYkm6uSl_-15" value="&lt;font face=&quot;Comic Sans MS&quot;&gt;Consumer&lt;/font&gt;" style="rounded=1;whiteSpace=wrap;html=1;shadow=0;strokeColor=default;fillColor=default;gradientColor=none;glass=0;labelBackgroundColor=none;sketch=1;curveFitting=1;jiggle=2;" parent="1" vertex="1">
          <mxGeometry x="349" y="735" width="81" height="25" as="geometry" />
        </mxCell>
        <mxCell id="1-aPaQAdepPUYkm6uSl_-17" style="edgeStyle=orthogonalEdgeStyle;rounded=0;sketch=1;orthogonalLoop=1;jettySize=auto;html=1;entryX=1;entryY=0.5;entryDx=0;entryDy=0;shadow=1;fontFamily=Comic Sans MS;labelBackgroundColor=none;" parent="1" source="1-aPaQAdepPUYkm6uSl_-16" target="1-aPaQAdepPUYkm6uSl_-9" edge="1">
          <mxGeometry relative="1" as="geometry">
            <Array as="points">
              <mxPoint x="300" y="778" />
              <mxPoint x="300" y="790" />
            </Array>
          </mxGeometry>
        </mxCell>
        <mxCell id="1-aPaQAdepPUYkm6uSl_-37" value="2" style="edgeLabel;html=1;align=center;verticalAlign=middle;resizable=0;points=[];fontFamily=Comic Sans MS;labelBackgroundColor=none;" parent="1-aPaQAdepPUYkm6uSl_-17" vertex="1" connectable="0">
          <mxGeometry x="0.4798" y="-3" relative="1" as="geometry">
            <mxPoint y="-9" as="offset" />
          </mxGeometry>
        </mxCell>
        <mxCell id="1-aPaQAdepPUYkm6uSl_-16" value="&lt;font face=&quot;Comic Sans MS&quot;&gt;服务树&lt;/font&gt;" style="rounded=1;whiteSpace=wrap;html=1;shadow=0;sketch=1;strokeColor=default;fillColor=default;gradientColor=none;glass=0;labelBackgroundColor=none;" parent="1" vertex="1">
          <mxGeometry x="349" y="765" width="81" height="25" as="geometry" />
        </mxCell>
        <mxCell id="1-aPaQAdepPUYkm6uSl_-19" value="&lt;font face=&quot;Comic Sans MS&quot;&gt;extern&lt;/font&gt;" style="rounded=1;whiteSpace=wrap;html=1;shadow=1;sketch=1;strokeColor=default;fillColor=default;gradientColor=none;glass=0;horizontal=1;verticalAlign=top;labelBackgroundColor=none;" parent="1" vertex="1">
          <mxGeometry x="480" y="710" width="120" height="90" as="geometry" />
        </mxCell>
        <mxCell id="1-aPaQAdepPUYkm6uSl_-35" style="edgeStyle=orthogonalEdgeStyle;rounded=0;sketch=1;orthogonalLoop=1;jettySize=auto;html=1;entryX=0;entryY=0.5;entryDx=0;entryDy=0;shadow=1;fontFamily=Comic Sans MS;labelBackgroundColor=none;" parent="1" source="1-aPaQAdepPUYkm6uSl_-20" target="1-aPaQAdepPUYkm6uSl_-28" edge="1">
          <mxGeometry relative="1" as="geometry" />
        </mxCell>
        <mxCell id="1-aPaQAdepPUYkm6uSl_-38" value="3" style="edgeLabel;html=1;align=center;verticalAlign=middle;resizable=0;points=[];fontFamily=Comic Sans MS;labelBackgroundColor=none;" parent="1-aPaQAdepPUYkm6uSl_-35" vertex="1" connectable="0">
          <mxGeometry x="0.5862" y="5" relative="1" as="geometry">
            <mxPoint y="-7" as="offset" />
          </mxGeometry>
        </mxCell>
        <mxCell id="1-aPaQAdepPUYkm6uSl_-20" value="&lt;font face=&quot;Comic Sans MS&quot;&gt;whitelist&lt;/font&gt;" style="rounded=1;whiteSpace=wrap;html=1;shadow=0;sketch=1;strokeColor=default;fillColor=default;gradientColor=none;glass=0;labelBackgroundColor=none;" parent="1" vertex="1">
          <mxGeometry x="498.5" y="735" width="81" height="25" as="geometry" />
        </mxCell>
        <mxCell id="1-aPaQAdepPUYkm6uSl_-34" style="edgeStyle=orthogonalEdgeStyle;rounded=0;sketch=1;orthogonalLoop=1;jettySize=auto;html=1;entryX=0;entryY=0.5;entryDx=0;entryDy=0;shadow=1;fontFamily=Comic Sans MS;labelBackgroundColor=none;" parent="1" source="1-aPaQAdepPUYkm6uSl_-21" target="1-aPaQAdepPUYkm6uSl_-29" edge="1">
          <mxGeometry relative="1" as="geometry" />
        </mxCell>
        <mxCell id="1-aPaQAdepPUYkm6uSl_-39" value="4" style="edgeLabel;html=1;align=center;verticalAlign=middle;resizable=0;points=[];fontFamily=Comic Sans MS;labelBackgroundColor=none;" parent="1-aPaQAdepPUYkm6uSl_-34" vertex="1" connectable="0">
          <mxGeometry x="0.4261" y="2" relative="1" as="geometry">
            <mxPoint x="3" y="-10" as="offset" />
          </mxGeometry>
        </mxCell>
        <mxCell id="1-aPaQAdepPUYkm6uSl_-21" value="&lt;font face=&quot;Comic Sans MS&quot;&gt;CMDB&lt;/font&gt;" style="rounded=1;whiteSpace=wrap;html=1;shadow=0;sketch=1;strokeColor=default;fillColor=default;gradientColor=none;glass=0;labelBackgroundColor=none;" parent="1" vertex="1">
          <mxGeometry x="499" y="765" width="81" height="25" as="geometry" />
        </mxCell>
        <mxCell id="1-aPaQAdepPUYkm6uSl_-22" value="&lt;font face=&quot;Comic Sans MS&quot;&gt;Store&lt;/font&gt;" style="rounded=1;whiteSpace=wrap;html=1;shadow=1;sketch=1;strokeColor=default;fillColor=default;gradientColor=none;glass=0;horizontal=1;verticalAlign=top;labelBackgroundColor=none;" parent="1" vertex="1">
          <mxGeometry x="330" y="810" width="120" height="90" as="geometry" />
        </mxCell>
        <mxCell id="1-aPaQAdepPUYkm6uSl_-24" value="&lt;font face=&quot;Comic Sans MS&quot;&gt;Mysql&lt;/font&gt;" style="rounded=1;whiteSpace=wrap;html=1;shadow=0;sketch=1;strokeColor=default;fillColor=default;gradientColor=none;glass=0;labelBackgroundColor=none;" parent="1" vertex="1">
          <mxGeometry x="349.5" y="850" width="81" height="25" as="geometry" />
        </mxCell>
        <mxCell id="1-aPaQAdepPUYkm6uSl_-25" value="&lt;font face=&quot;Comic Sans MS&quot;&gt;exporter&lt;/font&gt;" style="rounded=1;whiteSpace=wrap;html=1;shadow=1;sketch=1;strokeColor=default;fillColor=default;gradientColor=none;glass=0;horizontal=1;verticalAlign=top;labelBackgroundColor=none;" parent="1" vertex="1">
          <mxGeometry x="479.5" y="810" width="120" height="90" as="geometry" />
        </mxCell>
        <mxCell id="1-aPaQAdepPUYkm6uSl_-26" value="&lt;font face=&quot;Comic Sans MS&quot;&gt;API&lt;/font&gt;" style="rounded=1;whiteSpace=wrap;html=1;shadow=0;sketch=1;strokeColor=default;fillColor=default;gradientColor=none;glass=0;labelBackgroundColor=none;" parent="1" vertex="1">
          <mxGeometry x="498.5" y="835" width="81" height="25" as="geometry" />
        </mxCell>
        <mxCell id="1-aPaQAdepPUYkm6uSl_-32" style="edgeStyle=orthogonalEdgeStyle;rounded=0;sketch=1;orthogonalLoop=1;jettySize=auto;html=1;entryX=0;entryY=0.5;entryDx=0;entryDy=0;shadow=1;fontFamily=Comic Sans MS;labelBackgroundColor=none;" parent="1" source="1-aPaQAdepPUYkm6uSl_-27" target="1-aPaQAdepPUYkm6uSl_-31" edge="1">
          <mxGeometry relative="1" as="geometry" />
        </mxCell>
        <mxCell id="1-aPaQAdepPUYkm6uSl_-43" value="5" style="edgeLabel;html=1;align=center;verticalAlign=middle;resizable=0;points=[];fontFamily=Comic Sans MS;labelBackgroundColor=none;" parent="1-aPaQAdepPUYkm6uSl_-32" vertex="1" connectable="0">
          <mxGeometry x="0.49" y="1" relative="1" as="geometry">
            <mxPoint x="1" y="-11" as="offset" />
          </mxGeometry>
        </mxCell>
        <mxCell id="1-aPaQAdepPUYkm6uSl_-27" value="&lt;font face=&quot;Comic Sans MS&quot;&gt;Producer&lt;/font&gt;" style="rounded=1;whiteSpace=wrap;html=1;shadow=0;sketch=1;strokeColor=default;fillColor=default;gradientColor=none;glass=0;labelBackgroundColor=none;" parent="1" vertex="1">
          <mxGeometry x="498.5" y="865" width="81" height="25" as="geometry" />
        </mxCell>
        <mxCell id="1-aPaQAdepPUYkm6uSl_-28" value="&lt;font face=&quot;Comic Sans MS&quot;&gt;whitelist&lt;/font&gt;" style="rounded=1;whiteSpace=wrap;html=1;shadow=1;sketch=1;strokeColor=default;fillColor=default;gradientColor=none;glass=0;labelBackgroundColor=none;" parent="1" vertex="1">
          <mxGeometry x="680" y="690" width="81" height="25" as="geometry" />
        </mxCell>
        <mxCell id="1-aPaQAdepPUYkm6uSl_-29" value="&lt;font face=&quot;Comic Sans MS&quot;&gt;CMDB&lt;/font&gt;" style="rounded=1;whiteSpace=wrap;html=1;shadow=1;sketch=1;strokeColor=default;fillColor=default;gradientColor=none;glass=0;labelBackgroundColor=none;" parent="1" vertex="1">
          <mxGeometry x="680" y="750" width="81" height="25" as="geometry" />
        </mxCell>
        <mxCell id="1-aPaQAdepPUYkm6uSl_-41" style="edgeStyle=orthogonalEdgeStyle;rounded=0;sketch=1;orthogonalLoop=1;jettySize=auto;html=1;entryX=1;entryY=0.5;entryDx=0;entryDy=0;shadow=1;fontFamily=Comic Sans MS;labelBackgroundColor=none;" parent="1" source="1-aPaQAdepPUYkm6uSl_-30" target="1-aPaQAdepPUYkm6uSl_-26" edge="1">
          <mxGeometry relative="1" as="geometry" />
        </mxCell>
        <mxCell id="1-aPaQAdepPUYkm6uSl_-42" value="5" style="edgeLabel;html=1;align=center;verticalAlign=middle;resizable=0;points=[];fontFamily=Comic Sans MS;labelBackgroundColor=none;" parent="1-aPaQAdepPUYkm6uSl_-41" vertex="1" connectable="0">
          <mxGeometry x="-0.3074" y="-1" relative="1" as="geometry">
            <mxPoint x="10" y="-11" as="offset" />
          </mxGeometry>
        </mxCell>
        <mxCell id="1-aPaQAdepPUYkm6uSl_-30" value="&lt;font face=&quot;Comic Sans MS&quot;&gt;Request&lt;/font&gt;" style="rounded=1;whiteSpace=wrap;html=1;shadow=1;sketch=1;strokeColor=default;fillColor=default;gradientColor=none;glass=0;labelBackgroundColor=none;" parent="1" vertex="1">
          <mxGeometry x="680" y="820" width="81" height="25" as="geometry" />
        </mxCell>
        <mxCell id="1-aPaQAdepPUYkm6uSl_-31" value="&lt;font face=&quot;Comic Sans MS&quot;&gt;DDMQ&lt;/font&gt;" style="rounded=1;whiteSpace=wrap;html=1;shadow=1;sketch=1;strokeColor=default;fillColor=default;gradientColor=none;glass=0;labelBackgroundColor=none;" parent="1" vertex="1">
          <mxGeometry x="680" y="890" width="81" height="25" as="geometry" />
        </mxCell>
      </root>
    </mxGraphModel>
  </diagram>
  <diagram id="C5RBs43oDa-KdzZeNtuy" name="数据填充">
    <mxGraphModel dx="1855" dy="500" grid="1" gridSize="10" guides="1" tooltips="1" connect="1" arrows="1" fold="1" page="1" pageScale="1" pageWidth="827" pageHeight="1169" math="0" shadow="1">
      <root>
        <mxCell id="WIyWlLk6GJQsqaUBKTNV-0" />
        <mxCell id="WIyWlLk6GJQsqaUBKTNV-1" parent="WIyWlLk6GJQsqaUBKTNV-0" />
        <mxCell id="WIyWlLk6GJQsqaUBKTNV-2" value="" style="rounded=0;html=1;jettySize=auto;orthogonalLoop=1;fontSize=11;endArrow=block;endFill=0;endSize=8;strokeWidth=1;shadow=1;labelBackgroundColor=none;edgeStyle=orthogonalEdgeStyle;sketch=1;" parent="WIyWlLk6GJQsqaUBKTNV-1" source="WIyWlLk6GJQsqaUBKTNV-3" target="WIyWlLk6GJQsqaUBKTNV-6" edge="1">
          <mxGeometry relative="1" as="geometry" />
        </mxCell>
        <mxCell id="WIyWlLk6GJQsqaUBKTNV-3" value="接收数据" style="rounded=1;whiteSpace=wrap;html=1;fontSize=12;glass=0;strokeWidth=1;shadow=1;sketch=1;" parent="WIyWlLk6GJQsqaUBKTNV-1" vertex="1">
          <mxGeometry x="160" y="90" width="120" height="40" as="geometry" />
        </mxCell>
        <mxCell id="WIyWlLk6GJQsqaUBKTNV-5" value="" style="edgeStyle=orthogonalEdgeStyle;rounded=0;html=1;jettySize=auto;orthogonalLoop=1;fontSize=11;endArrow=block;endFill=0;endSize=8;strokeWidth=1;shadow=1;labelBackgroundColor=none;sketch=1;" parent="WIyWlLk6GJQsqaUBKTNV-1" source="WIyWlLk6GJQsqaUBKTNV-6" target="WIyWlLk6GJQsqaUBKTNV-7" edge="1">
          <mxGeometry y="10" relative="1" as="geometry">
            <mxPoint as="offset" />
          </mxGeometry>
        </mxCell>
        <mxCell id="paviQJmQIAoH_BkD5Qnz-11" value="是" style="edgeLabel;html=1;align=center;verticalAlign=middle;resizable=0;points=[];" parent="WIyWlLk6GJQsqaUBKTNV-5" vertex="1" connectable="0">
          <mxGeometry x="-0.8267" y="1" relative="1" as="geometry">
            <mxPoint y="-9" as="offset" />
          </mxGeometry>
        </mxCell>
        <mxCell id="ZiVviRiBFboMpoQ2knOc-2" style="edgeStyle=orthogonalEdgeStyle;rounded=0;orthogonalLoop=1;jettySize=auto;html=1;entryX=0.5;entryY=0;entryDx=0;entryDy=0;sketch=1;curveFitting=1;jiggle=2;shadow=1;" edge="1" parent="WIyWlLk6GJQsqaUBKTNV-1" source="WIyWlLk6GJQsqaUBKTNV-6" target="paviQJmQIAoH_BkD5Qnz-5">
          <mxGeometry relative="1" as="geometry" />
        </mxCell>
        <mxCell id="WIyWlLk6GJQsqaUBKTNV-6" value="信息是否完整" style="rhombus;whiteSpace=wrap;html=1;shadow=1;fontFamily=Helvetica;fontSize=12;align=center;strokeWidth=1;spacing=6;spacingTop=-4;sketch=1;rounded=1;" parent="WIyWlLk6GJQsqaUBKTNV-1" vertex="1">
          <mxGeometry x="170" y="170" width="100" height="80" as="geometry" />
        </mxCell>
        <mxCell id="WIyWlLk6GJQsqaUBKTNV-7" value="记录" style="rounded=1;whiteSpace=wrap;html=1;fontSize=12;glass=0;strokeWidth=1;shadow=1;sketch=1;curveFitting=1;jiggle=2;" parent="WIyWlLk6GJQsqaUBKTNV-1" vertex="1">
          <mxGeometry x="360" y="430" width="120" height="40" as="geometry" />
        </mxCell>
        <mxCell id="WIyWlLk6GJQsqaUBKTNV-11" value="丢弃" style="rounded=1;whiteSpace=wrap;html=1;fontSize=12;glass=0;strokeWidth=1;shadow=1;sketch=1;" parent="WIyWlLk6GJQsqaUBKTNV-1" vertex="1">
          <mxGeometry x="-40" y="570" width="120" height="40" as="geometry" />
        </mxCell>
        <mxCell id="paviQJmQIAoH_BkD5Qnz-8" value="" style="edgeStyle=orthogonalEdgeStyle;rounded=0;sketch=1;orthogonalLoop=1;jettySize=auto;html=1;shadow=1;" parent="WIyWlLk6GJQsqaUBKTNV-1" source="paviQJmQIAoH_BkD5Qnz-5" target="paviQJmQIAoH_BkD5Qnz-7" edge="1">
          <mxGeometry relative="1" as="geometry" />
        </mxCell>
        <mxCell id="paviQJmQIAoH_BkD5Qnz-13" value="成功" style="edgeLabel;html=1;align=center;verticalAlign=middle;resizable=0;points=[];" parent="paviQJmQIAoH_BkD5Qnz-8" vertex="1" connectable="0">
          <mxGeometry x="-0.5" y="1" relative="1" as="geometry">
            <mxPoint x="19" y="10" as="offset" />
          </mxGeometry>
        </mxCell>
        <mxCell id="paviQJmQIAoH_BkD5Qnz-9" style="edgeStyle=orthogonalEdgeStyle;rounded=0;sketch=1;orthogonalLoop=1;jettySize=auto;html=1;entryX=0.5;entryY=0;entryDx=0;entryDy=0;shadow=1;" parent="WIyWlLk6GJQsqaUBKTNV-1" source="paviQJmQIAoH_BkD5Qnz-5" target="WIyWlLk6GJQsqaUBKTNV-11" edge="1">
          <mxGeometry relative="1" as="geometry" />
        </mxCell>
        <mxCell id="paviQJmQIAoH_BkD5Qnz-10" value="失败" style="edgeLabel;html=1;align=center;verticalAlign=middle;resizable=0;points=[];" parent="paviQJmQIAoH_BkD5Qnz-9" vertex="1" connectable="0">
          <mxGeometry x="-0.7152" y="1" relative="1" as="geometry">
            <mxPoint x="-3" y="-11" as="offset" />
          </mxGeometry>
        </mxCell>
        <mxCell id="paviQJmQIAoH_BkD5Qnz-5" value="cmdb查询资源" style="rhombus;whiteSpace=wrap;html=1;shadow=1;fontFamily=Helvetica;fontSize=12;align=center;strokeWidth=1;spacing=6;spacingTop=-4;sketch=1;strokeColor=default;rounded=1;" parent="WIyWlLk6GJQsqaUBKTNV-1" vertex="1">
          <mxGeometry x="170" y="290" width="100" height="80" as="geometry" />
        </mxCell>
        <mxCell id="paviQJmQIAoH_BkD5Qnz-14" style="edgeStyle=orthogonalEdgeStyle;rounded=0;sketch=1;orthogonalLoop=1;jettySize=auto;html=1;shadow=1;" parent="WIyWlLk6GJQsqaUBKTNV-1" source="paviQJmQIAoH_BkD5Qnz-7" edge="1">
          <mxGeometry relative="1" as="geometry">
            <mxPoint x="360" y="450" as="targetPoint" />
          </mxGeometry>
        </mxCell>
        <mxCell id="paviQJmQIAoH_BkD5Qnz-15" value="是" style="edgeLabel;html=1;align=center;verticalAlign=middle;resizable=0;points=[];" parent="paviQJmQIAoH_BkD5Qnz-14" vertex="1" connectable="0">
          <mxGeometry x="-0.2667" relative="1" as="geometry">
            <mxPoint x="4" y="-10" as="offset" />
          </mxGeometry>
        </mxCell>
        <mxCell id="paviQJmQIAoH_BkD5Qnz-17" value="否" style="edgeStyle=orthogonalEdgeStyle;rounded=0;sketch=1;orthogonalLoop=1;jettySize=auto;html=1;shadow=1;" parent="WIyWlLk6GJQsqaUBKTNV-1" source="paviQJmQIAoH_BkD5Qnz-7" target="paviQJmQIAoH_BkD5Qnz-16" edge="1">
          <mxGeometry x="-0.2" y="20" relative="1" as="geometry">
            <mxPoint as="offset" />
          </mxGeometry>
        </mxCell>
        <mxCell id="paviQJmQIAoH_BkD5Qnz-7" value="是否可以&lt;br&gt;确定资源实例" style="rhombus;whiteSpace=wrap;html=1;shadow=1;fontFamily=Helvetica;fontSize=12;align=center;strokeWidth=1;spacing=6;spacingTop=-4;sketch=1;strokeColor=default;rounded=1;" parent="WIyWlLk6GJQsqaUBKTNV-1" vertex="1">
          <mxGeometry x="170" y="410" width="100" height="80" as="geometry" />
        </mxCell>
        <mxCell id="ZiVviRiBFboMpoQ2knOc-3" value="否" style="edgeStyle=orthogonalEdgeStyle;rounded=0;orthogonalLoop=1;jettySize=auto;html=1;shadow=1;sketch=1;curveFitting=1;jiggle=2;" edge="1" parent="WIyWlLk6GJQsqaUBKTNV-1" source="paviQJmQIAoH_BkD5Qnz-16">
          <mxGeometry x="-0.0159" y="-10" relative="1" as="geometry">
            <mxPoint x="80" y="590" as="targetPoint" />
            <mxPoint as="offset" />
          </mxGeometry>
        </mxCell>
        <mxCell id="ZiVviRiBFboMpoQ2knOc-8" style="edgeStyle=orthogonalEdgeStyle;rounded=0;orthogonalLoop=1;jettySize=auto;html=1;entryX=0.5;entryY=0;entryDx=0;entryDy=0;shadow=1;sketch=1;curveFitting=1;jiggle=2;" edge="1" parent="WIyWlLk6GJQsqaUBKTNV-1" source="paviQJmQIAoH_BkD5Qnz-16" target="ZiVviRiBFboMpoQ2knOc-4">
          <mxGeometry relative="1" as="geometry" />
        </mxCell>
        <mxCell id="0Z_bqPiCjzDoLn-UYZAr-0" value="是" style="edgeLabel;html=1;align=center;verticalAlign=middle;resizable=0;points=[];" vertex="1" connectable="0" parent="ZiVviRiBFboMpoQ2knOc-8">
          <mxGeometry x="0.0049" y="-4" relative="1" as="geometry">
            <mxPoint x="24" y="-1" as="offset" />
          </mxGeometry>
        </mxCell>
        <mxCell id="paviQJmQIAoH_BkD5Qnz-16" value="是否需要记录" style="rhombus;whiteSpace=wrap;html=1;shadow=1;fontFamily=Helvetica;fontSize=12;align=center;strokeWidth=1;spacing=6;spacingTop=-4;sketch=1;strokeColor=default;rounded=1;" parent="WIyWlLk6GJQsqaUBKTNV-1" vertex="1">
          <mxGeometry x="158.75" y="540" width="122.5" height="100" as="geometry" />
        </mxCell>
        <mxCell id="ZiVviRiBFboMpoQ2knOc-4" value="记录不完整信息" style="rounded=1;whiteSpace=wrap;html=1;fontSize=12;glass=0;strokeWidth=1;shadow=1;sketch=1;" vertex="1" parent="WIyWlLk6GJQsqaUBKTNV-1">
          <mxGeometry x="160" y="690" width="120" height="40" as="geometry" />
        </mxCell>
      </root>
    </mxGraphModel>
  </diagram>
  <diagram id="f0A35BBjDYPAkv5x5vZF" name="第 3 页">
    <mxGraphModel dx="1182" dy="575" grid="1" gridSize="10" guides="1" tooltips="1" connect="1" arrows="1" fold="1" page="1" pageScale="1" pageWidth="827" pageHeight="1169" background="none" math="0" shadow="1">
      <root>
        <mxCell id="0" />
        <mxCell id="1" parent="0" />
        <mxCell id="NGcD8UUdOz0-xJaf4eiL-8" value="timeout" style="rounded=1;orthogonalLoop=1;jettySize=auto;html=1;strokeColor=default;shadow=0;sketch=1;curveFitting=1;jiggle=2;" edge="1" parent="1" source="NGcD8UUdOz0-xJaf4eiL-1">
          <mxGeometry x="0.2049" y="-26" relative="1" as="geometry">
            <mxPoint x="260" y="320" as="targetPoint" />
            <mxPoint x="-1" as="offset" />
          </mxGeometry>
        </mxCell>
        <mxCell id="NGcD8UUdOz0-xJaf4eiL-1" value="&lt;font face=&quot;Comic Sans MS&quot;&gt;active&lt;/font&gt;" style="rounded=1;whiteSpace=wrap;html=1;shadow=0;glass=0;sketch=1;curveFitting=1;jiggle=2;" vertex="1" parent="1">
          <mxGeometry x="354" y="160" width="120" height="60" as="geometry" />
        </mxCell>
        <mxCell id="NGcD8UUdOz0-xJaf4eiL-12" style="edgeStyle=orthogonalEdgeStyle;rounded=1;orthogonalLoop=1;jettySize=auto;html=1;sketch=1;curveFitting=1;jiggle=2;" edge="1" parent="1" source="NGcD8UUdOz0-xJaf4eiL-4">
          <mxGeometry relative="1" as="geometry">
            <mxPoint x="510" y="350" as="targetPoint" />
          </mxGeometry>
        </mxCell>
        <mxCell id="NGcD8UUdOz0-xJaf4eiL-15" value="timeout" style="edgeLabel;html=1;align=center;verticalAlign=middle;resizable=0;points=[];rounded=1;sketch=1;curveFitting=1;jiggle=2;" vertex="1" connectable="0" parent="NGcD8UUdOz0-xJaf4eiL-12">
          <mxGeometry x="-0.1" y="2" relative="1" as="geometry">
            <mxPoint x="14" y="-8" as="offset" />
          </mxGeometry>
        </mxCell>
        <mxCell id="NGcD8UUdOz0-xJaf4eiL-14" value="connect" style="rounded=1;orthogonalLoop=1;jettySize=auto;html=1;exitX=0.75;exitY=0;exitDx=0;exitDy=0;entryX=0.5;entryY=1;entryDx=0;entryDy=0;sketch=1;curveFitting=1;jiggle=2;" edge="1" parent="1" source="NGcD8UUdOz0-xJaf4eiL-4" target="NGcD8UUdOz0-xJaf4eiL-1">
          <mxGeometry x="0.1948" y="-25" relative="1" as="geometry">
            <mxPoint as="offset" />
          </mxGeometry>
        </mxCell>
        <mxCell id="NGcD8UUdOz0-xJaf4eiL-4" value="&lt;font face=&quot;Comic Sans MS&quot;&gt;timewait&lt;/font&gt;" style="rounded=1;whiteSpace=wrap;html=1;shadow=0;glass=0;sketch=1;curveFitting=1;jiggle=2;" vertex="1" parent="1">
          <mxGeometry x="200" y="320" width="120" height="60" as="geometry" />
        </mxCell>
        <mxCell id="NGcD8UUdOz0-xJaf4eiL-13" style="rounded=1;orthogonalLoop=1;jettySize=auto;html=1;entryX=1;entryY=1;entryDx=0;entryDy=0;sketch=1;curveFitting=1;jiggle=2;" edge="1" parent="1" source="NGcD8UUdOz0-xJaf4eiL-5" target="NGcD8UUdOz0-xJaf4eiL-1">
          <mxGeometry relative="1" as="geometry" />
        </mxCell>
        <mxCell id="NGcD8UUdOz0-xJaf4eiL-16" value="connect" style="edgeLabel;html=1;align=center;verticalAlign=middle;resizable=0;points=[];rounded=1;sketch=1;curveFitting=1;jiggle=2;" vertex="1" connectable="0" parent="NGcD8UUdOz0-xJaf4eiL-13">
          <mxGeometry x="-0.1347" y="-4" relative="1" as="geometry">
            <mxPoint x="27" y="-4" as="offset" />
          </mxGeometry>
        </mxCell>
        <mxCell id="NGcD8UUdOz0-xJaf4eiL-5" value="&lt;font face=&quot;Comic Sans MS&quot;&gt;inactive&lt;/font&gt;" style="rounded=1;whiteSpace=wrap;html=1;shadow=0;glass=0;sketch=1;curveFitting=1;jiggle=2;" vertex="1" parent="1">
          <mxGeometry x="520" y="320" width="120" height="60" as="geometry" />
        </mxCell>
        <mxCell id="NGcD8UUdOz0-xJaf4eiL-17" value="" style="endArrow=classic;html=1;rounded=1;entryX=0;entryY=0.5;entryDx=0;entryDy=0;sketch=1;curveFitting=1;jiggle=2;" edge="1" parent="1" target="NGcD8UUdOz0-xJaf4eiL-1">
          <mxGeometry width="50" height="50" relative="1" as="geometry">
            <mxPoint x="200" y="190" as="sourcePoint" />
            <mxPoint x="440" y="270" as="targetPoint" />
          </mxGeometry>
        </mxCell>
        <mxCell id="NGcD8UUdOz0-xJaf4eiL-18" value="connect" style="edgeLabel;html=1;align=center;verticalAlign=middle;resizable=0;points=[];rounded=1;sketch=1;curveFitting=1;jiggle=2;" vertex="1" connectable="0" parent="NGcD8UUdOz0-xJaf4eiL-17">
          <mxGeometry x="-0.2078" y="1" relative="1" as="geometry">
            <mxPoint x="19" y="-9" as="offset" />
          </mxGeometry>
        </mxCell>
      </root>
    </mxGraphModel>
  </diagram>
</mxfile>
